 <svg  version="1.0" xmlns="http://www.w3.org/2000/svg"  width="133.000000pt" height="162.000000pt" viewBox="0 0 133.000000 162.000000"  preserveAspectRatio="xMidYMid meet">  <g transform="translate(0.000000,162.000000) scale(0.100000,-0.100000)" fill="#22a94b" stroke="none"> <path d="M350 1435 c-19 -7 -48 -14 -65 -14 -32 -1 -68 -32 -79 -68 -4 -12 -24 -36 -44 -54 -53 -46 -83 -112 -70 -151 7 -21 7 -37 -1 -54 -18 -39 -3 -76 58 -142 l58 -63 74 11 c41 6 89 13 107 16 25 5 32 3 32 -10 0 -9 7 -16 15 -16 47 0 58 -15 51 -71 -5 -40 -3 -53 17 -82 13 -20 30 -56 37 -81 11 -40 10 -49 -4 -70 -23 -36 -21 -98 6 -131 14 -18 21 -40 20 -60 -2 -19 9 -54 28 -89 17 -32 29 -64 26 -71 -8 -21 19 -38 42 -26 11 6 22 8 25 5 12 -12 76 18 92 42 9 14 25 34 36 45 10 10 19 28 19 39 0 11 11 30 25 42 18 16 23 27 19 45 -5 18 4 34 40 73 36 39 46 56 46 84 0 19 -4 38 -10 41 -18 11 -11 98 9 132 11 17 45 55 75 84 56 52 86 108 86 155 0 20 -3 24 -12 16 -11 -9 -62 -16 -94 -13 -6 1 -17 15 -24 31 -7 17 -16 30 -21 30 -12 0 -65 83 -73 116 -4 16 -12 34 -17 40 -5 7 -21 33 -34 60 -25 50 -24 74 1 39 12 -16 16 -17 23 -6 18 28 1 41 -53 41 -29 0 -75 7 -102 15 -62 19 -61 19 -67 -6 -5 -18 -11 -20 -34 -15 -15 4 -33 13 -38 21 -6 7 -24 15 -40 17 -26 3 -30 8 -33 36 l-3 32 -57 -1 c-31 0 -73 -7 -92 -14z"/> <path d="M1075 558 c-6 -13 -20 -27 -33 -33 -25 -11 -28 -18 -37 -91 -5 -39 -3 -53 9 -63 13 -11 19 -11 31 -1 8 7 15 19 15 27 0 8 6 29 14 46 25 55 37 103 30 120 -8 23 -17 21 -29 -5z"/> </g> </svg> 