 <svg  version="1.0" xmlns="http://www.w3.org/2000/svg"  width="185.000000pt" height="147.000000pt" viewBox="0 0 185.000000 147.000000"  preserveAspectRatio="xMidYMid meet">  <g transform="translate(0.000000,147.000000) scale(0.100000,-0.100000)" fill="#f7c210" stroke="none"> <path d="M628 1317 c-25 -7 -57 -21 -70 -32 -13 -12 -33 -19 -48 -17 -20 3 -23 1 -12 -9 18 -19 15 -59 -4 -59 -10 0 -14 6 -10 18 8 25 -27 67 -49 58 -14 -5 -16 -9 -7 -18 7 -7 12 -19 12 -27 0 -12 -3 -12 -12 -3 -13 13 -48 16 -48 5 0 -5 -25 -9 -55 -10 -78 -2 -87 -4 -118 -25 -18 -13 -25 -24 -19 -31 21 -27 42 -121 42 -185 0 -61 2 -70 20 -75 11 -3 20 -13 20 -22 0 -15 -6 -17 -40 -11 -37 6 -120 -16 -120 -33 1 -19 20 -30 63 -34 27 -3 51 -8 54 -11 3 -3 -4 -24 -15 -46 -19 -40 -19 -42 -2 -58 18 -17 70 -89 70 -97 0 -2 11 -21 25 -41 14 -20 25 -45 25 -55 0 -25 18 -33 38 -17 9 7 39 24 66 38 27 14 57 38 67 55 l19 30 -27 21 c-21 16 -31 19 -44 11 -13 -8 -23 -3 -47 24 -17 19 -32 38 -32 42 0 13 34 21 38 9 7 -23 33 -42 57 -42 13 0 25 -5 27 -11 2 -7 27 -11 58 -11 48 0 59 -4 83 -30 16 -16 35 -27 43 -24 10 4 14 -2 14 -18 0 -13 11 -48 24 -77 13 -30 27 -63 30 -74 7 -20 8 -20 22 -1 8 11 14 34 14 50 0 24 13 44 51 84 28 28 56 52 63 52 17 0 53 -41 58 -65 3 -14 11 -19 26 -18 14 2 22 -3 22 -13 0 -8 5 -25 11 -36 8 -16 13 -18 19 -8 6 10 16 7 40 -13 61 -52 97 10 43 73 -32 39 -23 64 25 66 35 2 97 37 106 60 14 36 5 78 -21 106 -23 24 -25 30 -13 38 8 5 12 10 8 11 -5 1 -11 2 -15 3 -5 1 -16 6 -26 12 -17 10 -17 11 3 29 17 15 20 16 20 2 0 -10 6 -13 20 -10 22 6 60 -29 60 -54 0 -16 16 -17 25 -2 4 6 -2 21 -14 33 -18 19 -19 26 -8 49 6 15 18 27 24 27 11 0 18 16 25 60 4 28 -31 80 -55 80 -39 0 -51 14 -40 46 9 27 14 29 66 32 44 2 57 7 57 19 0 11 6 14 25 9 16 -4 25 -2 25 6 0 8 3 9 10 2 8 -8 7 -19 0 -38 -9 -26 -7 -32 30 -67 22 -21 41 -39 43 -39 1 0 2 14 1 32 -1 19 -9 38 -22 49 -30 24 -27 39 8 39 16 0 33 6 37 14 4 7 15 16 23 19 12 4 11 6 -2 6 -10 1 -18 6 -18 12 0 7 14 10 35 7 32 -4 46 4 28 15 -22 14 -217 47 -225 39 -5 -5 -28 -5 -56 0 -100 19 -257 35 -262 28 -8 -13 -64 -15 -86 -2 -11 6 -62 12 -112 14 -82 3 -91 5 -86 21 4 13 0 17 -18 17 -13 0 -32 2 -43 4 -11 2 -41 -1 -67 -7z"/> <path d="M1360 980 c0 -7 3 -10 7 -7 3 4 3 10 0 14 -4 3 -7 0 -7 -7z"/> <path d="M1396 904 c-3 -9 2 -14 14 -14 26 0 34 17 11 23 -12 3 -22 -1 -25 -9z"/> <path d="M1413 857 c8 -21 -17 -64 -41 -70 -9 -3 -3 -5 14 -6 16 0 35 4 42 11 17 17 15 53 -5 69 -15 12 -16 12 -10 -4z"/> <path d="M1345 740 c3 -5 8 -10 11 -10 2 0 4 5 4 10 0 6 -5 10 -11 10 -5 0 -7 -4 -4 -10z"/> <path d="M1261 624 c0 -11 3 -14 6 -6 3 7 2 16 -1 19 -3 4 -6 -2 -5 -13z"/> <path d="M1133 563 c4 -3 10 -3 14 0 3 4 0 7 -7 7 -7 0 -10 -3 -7 -7z"/> <path d="M1277 543 c-11 -10 -8 -43 3 -43 6 0 10 11 10 25 0 26 -2 29 -13 18z"/> <path d="M1310 480 c0 -5 5 -10 11 -10 5 0 7 5 4 10 -3 6 -8 10 -11 10 -2 0 -4 -4 -4 -10z"/> <path d="M1020 417 c0 -19 43 -96 56 -101 21 -8 9 31 -19 64 -12 14 -25 29 -29 35 -5 5 -8 6 -8 2z"/> <path d="M1337 411 c-17 -6 -18 -8 -3 -20 18 -15 29 -10 24 12 -2 9 -9 12 -21 8z"/> <path d="M790 395 c0 -8 5 -15 10 -15 6 0 10 7 10 15 0 8 -4 15 -10 15 -5 0 -10 -7 -10 -15z"/> <path d="M1237 376 c-3 -9 -23 -28 -44 -43 -30 -22 -37 -33 -35 -55 2 -18 9 -28 20 -28 9 0 26 -3 38 -6 17 -4 22 1 32 33 18 61 20 92 7 103 -9 8 -14 6 -18 -4z"/> <path d="M1023 308 c34 -57 76 -108 78 -95 5 26 3 35 -11 58 -15 25 -82 89 -93 89 -4 0 8 -24 26 -52z"/> <path d="M1287 274 c-11 -11 -8 -36 2 -29 6 3 15 -3 21 -12 9 -15 10 -14 4 7 -8 30 -18 43 -27 34z"/> <path d="M1442 261 c6 -10 25 -25 42 -32 17 -8 31 -21 31 -29 0 -17 15 -31 27 -24 4 3 8 21 8 39 0 44 -27 61 -59 38 -21 -14 -23 -14 -28 6 -3 12 -12 21 -19 21 -11 0 -12 -4 -2 -19z"/> <path d="M1120 192 c25 -17 90 -26 90 -13 0 6 -12 11 -27 11 -16 0 -39 3 -53 6 -19 4 -21 3 -10 -4z"/> </g> </svg> 