<?xml version="1.0" standalone="no"?>
<!DOCTYPE svg PUBLIC "-//W3C//DTD SVG 20010904//EN"
 "http://www.w3.org/TR/2001/REC-SVG-20010904/DTD/svg10.dtd">
<svg version="1.0" xmlns="http://www.w3.org/2000/svg"
 width="1.8em" height="1.8em" viewBox="0 0 1024.000000 1024.000000"
 preserveAspectRatio="xMidYMid meet">
<metadata>
Created by potrace 1.16, written by Peter Selinger 2001-2019
</metadata>
<g transform="translate(0.000000,1024.000000) scale(0.100000,-0.100000)"
fill="white" stroke="none" padding="10px 0 0 0 0">
<path d="M5985 8773 c-37 -9 -380 -180 -434 -217 -29 -20 -65 -36 -80 -36 -14
0 -172 46 -350 102 l-324 102 -86 -31 c-47 -17 -174 -67 -281 -111 -480 -197
-679 -241 -1352 -297 -167 -14 -319 -28 -339 -31 -20 -3 -145 -9 -278 -13
l-241 -7 -72 -52 c-40 -28 -189 -129 -330 -223 -287 -192 -278 -183 -336 -349
-35 -102 -95 -340 -117 -465 -8 -49 -20 -168 -26 -264 -8 -141 -8 -176 3 -182
7 -5 81 -9 165 -9 l152 0 16 -57 c24 -81 89 -207 121 -232 57 -45 90 -19 199
154 l77 120 79 0 79 0 11 -32 c13 -40 131 -238 160 -269 35 -37 69 -37 104 0
29 31 146 238 159 281 5 19 14 21 84 20 l77 0 59 -90 c33 -49 83 -113 112
-143 47 -49 55 -53 90 -50 38 3 40 5 81 88 23 47 52 113 63 147 l21 61 102 -5
c56 -2 119 -11 140 -19 76 -29 184 -10 255 44 26 19 74 44 107 55 73 23 102
23 920 18 l610 -3 -3 -112 c-2 -61 -8 -114 -14 -117 -5 -4 -269 -9 -586 -12
-603 -6 -659 -10 -811 -53 -206 -60 -340 -133 -517 -284 -138 -118 -288 -225
-302 -216 -5 3 -12 19 -16 36 -8 40 -58 113 -97 140 -16 12 -44 23 -61 24 -26
1 -37 -7 -64 -42 -39 -50 -50 -86 -65 -208 l-12 -90 -98 -17 c-53 -9 -105 -20
-113 -23 -13 -5 -16 2 -16 38 0 55 -26 144 -52 181 -24 34 -87 67 -127 67 -40
0 -93 -47 -120 -106 -12 -25 -27 -84 -33 -130 l-11 -84 -112 0 -112 0 -6 63
c-6 79 -40 169 -78 207 -105 104 -251 -16 -253 -207 -1 -81 -3 -83 -83 -83
-24 0 -43 -4 -43 -8 0 -22 42 -126 85 -212 124 -246 279 -398 463 -453 61 -18
111 -20 522 -27 1247 -21 1401 -22 1550 -7 80 7 147 12 149 11 9 -7 -34 -93
-91 -183 -62 -98 -120 -199 -293 -516 -55 -99 -132 -235 -172 -302 -40 -68
-125 -214 -189 -325 -64 -112 -127 -216 -140 -231 -31 -37 -31 -73 -1 -81 12
-4 69 -9 127 -12 93 -6 112 -4 163 16 32 12 88 45 125 73 76 58 275 231 312
272 14 15 64 61 113 102 80 69 91 82 131 166 43 91 158 389 256 667 169 476
228 642 276 782 79 234 83 239 236 371 73 62 297 282 498 488 200 206 593 602
872 881 l507 507 -31 26 c-71 60 -225 118 -382 145 -55 9 -101 21 -103 27 -2
6 9 26 25 45 54 63 192 257 202 284 13 33 -6 66 -52 90 -76 39 -365 36 -563
-7 -100 -21 -135 -24 -135 -9 0 5 11 78 25 162 32 193 32 240 3 268 -21 19
-42 23 -83 13z m-1143 -593 c58 -16 130 -71 161 -122 57 -92 35 -220 -54 -309
-58 -58 -94 -73 -174 -74 -59 0 -78 5 -124 30 -156 86 -193 271 -80 400 64 72
172 102 271 75z m-2513 -547 c34 -26 64 -81 57 -105 -3 -7 -7 -25 -10 -40 -7
-32 -96 -90 -259 -169 l-108 -52 -26 19 c-41 31 -63 81 -63 146 0 69 -1 68
195 169 147 76 154 77 214 32z"/>
<path d="M8255 8516 c-143 -33 -260 -94 -340 -176 l-40 -41 45 -42 c242 -222
447 -413 613 -572 109 -104 239 -228 289 -274 l89 -84 50 49 c103 100 166 284
155 445 -9 116 -28 186 -82 297 -110 227 -371 397 -628 408 -56 2 -114 -2
-151 -10z"/>
<path d="M7703 8148 c-10 -13 -76 -80 -148 -148 -71 -69 -131 -129 -132 -135
-3 -10 328 -352 427 -441 30 -27 145 -133 254 -234 307 -285 380 -350 393
-350 6 0 22 15 35 33 12 17 73 88 135 157 62 69 113 131 113 139 0 8 -93 107
-207 221 -194 191 -247 243 -458 439 -44 41 -120 114 -170 161 -49 48 -120
108 -157 134 l-66 46 -19 -22z m214 -355 c186 -176 268 -257 413 -407 41 -43
99 -97 129 -120 92 -69 111 -126 55 -162 -42 -28 -71 -10 -219 136 -199 197
-394 383 -510 487 -145 132 -158 147 -150 175 13 40 44 65 82 67 7 1 97 -79
200 -176z"/>
<path d="M7182 7598 c-53 -56 -123 -127 -156 -158 -32 -30 -208 -210 -390
-400 -477 -498 -1071 -1095 -1215 -1222 -68 -61 -143 -118 -166 -128 -48 -20
-49 -23 -125 -245 -21 -60 -52 -146 -70 -190 -34 -84 -208 -562 -230 -630 -20
-63 -174 -471 -214 -567 -39 -93 -43 -117 -24 -136 22 -22 75 -13 192 32 63
25 146 54 184 66 39 11 141 48 228 81 88 34 193 74 234 89 114 42 128 48 330
143 42 19 125 52 185 73 61 21 175 70 255 110 158 78 160 80 325 274 85 100
167 187 525 560 248 258 482 504 840 885 129 138 286 300 350 362 l115 112
-35 28 c-19 15 -151 140 -293 278 -142 137 -262 252 -267 253 -23 8 -160 -122
-555 -529 -231 -237 -600 -610 -819 -828 -368 -365 -566 -575 -566 -600 0 -5
12 -24 26 -41 l27 -31 -29 6 c-60 14 -66 18 -80 51 -8 19 -17 69 -20 111 -4
45 -13 85 -21 95 -8 9 -71 36 -140 60 -96 33 -136 52 -169 81 -45 39 -54 57
-31 57 6 0 80 -33 162 -75 83 -41 161 -77 175 -80 33 -7 140 73 218 163 31 37
107 117 168 177 62 61 219 220 350 355 386 396 900 916 1033 1043 l123 119
-79 71 c-43 39 -114 106 -159 149 -44 43 -84 78 -88 78 -4 0 -51 -46 -104
-102z m-1729 -2164 c89 -23 127 -42 137 -70 6 -14 10 -65 10 -114 0 -60 4 -91
12 -96 7 -5 89 -29 183 -54 l170 -46 6 -105 c3 -57 9 -112 13 -122 5 -9 49
-37 100 -61 93 -45 147 -89 130 -105 -9 -10 -119 -50 -276 -102 -48 -16 -183
-67 -300 -113 -117 -46 -222 -86 -233 -88 -16 -2 -21 6 -31 49 -26 115 -121
219 -259 284 l-85 40 17 32 c27 52 238 614 270 719 4 15 9 14 43 -8 21 -14 63
-32 93 -40z"/>
<path d="M7000 5067 c-262 -269 -351 -366 -408 -449 -53 -77 -89 -118 -133
-149 -79 -58 -339 -200 -464 -254 -55 -24 -140 -62 -189 -84 -48 -23 -273
-104 -500 -180 -576 -194 -515 -163 -680 -339 -77 -81 -184 -194 -239 -251
-54 -57 -105 -118 -112 -135 -7 -17 -15 -91 -19 -165 l-6 -134 82 6 c102 8
311 46 479 86 362 87 800 280 1074 474 446 317 821 749 1200 1382 175 293 263
473 253 520 -2 10 -128 -112 -338 -328z"/>
<path d="M8081 5034 c-39 -33 -51 -77 -51 -194 0 -52 -4 -100 -8 -106 -4 -6
-67 -15 -143 -21 -145 -11 -176 -22 -197 -69 -27 -58 -7 -103 60 -132 14 -6
77 -14 138 -18 114 -7 140 -17 140 -52 2 -82 21 -217 35 -246 35 -73 98 -77
145 -10 22 33 25 49 28 164 l4 128 97 7 c179 11 220 27 247 91 20 47 8 83 -37
109 -29 17 -56 21 -171 23 l-138 4 0 127 c0 145 -10 185 -51 206 -40 21 -63
19 -98 -11z"/>
<path d="M2743 4269 c-97 -18 -238 -146 -285 -260 -15 -35 -44 -109 -66 -164
-22 -55 -57 -140 -78 -190 -49 -119 -55 -167 -23 -201 29 -31 71 -54 99 -54
71 0 118 75 180 290 87 304 134 390 215 390 73 0 108 -60 181 -307 133 -455
218 -594 430 -703 61 -31 79 -35 162 -39 100 -3 171 13 273 64 31 17 62 23
101 23 48 -1 63 4 101 32 25 18 66 59 91 91 63 81 242 283 364 411 56 59 102
111 102 116 0 15 -44 50 -71 57 -38 9 -127 -51 -219 -148 -94 -99 -336 -312
-400 -353 -27 -17 -86 -46 -132 -64 -110 -44 -197 -46 -281 -7 -144 66 -167
106 -313 538 -45 136 -94 270 -109 298 -68 135 -191 204 -322 180z"/>
<path d="M7031 4083 c-24 -20 -40 -76 -41 -140 l0 -43 -83 0 c-74 0 -86 -3
-105 -23 -34 -36 -46 -80 -32 -122 18 -53 42 -65 137 -65 l83 0 0 -60 c0 -141
76 -199 160 -122 27 24 31 35 37 105 l6 77 71 0 c79 0 106 12 131 60 22 43 18
76 -14 112 -28 32 -33 33 -114 36 l-85 4 -6 69 c-6 53 -13 76 -32 99 -30 35
-79 41 -113 13z"/>
<path d="M3895 2898 c-36 -20 -86 -72 -108 -113 -32 -62 -35 -175 -7 -260 38
-114 110 -167 207 -152 76 13 161 97 184 180 37 140 -102 358 -228 357 -15 0
-37 -6 -48 -12z"/>
</g>
</svg>
