 <svg  version="1.0" xmlns="http://www.w3.org/2000/svg"  width="184.000000pt" height="137.000000pt" viewBox="0 0 184.000000 137.000000"  preserveAspectRatio="xMidYMid meet">  <g transform="translate(0.000000,137.000000) scale(0.100000,-0.100000)" fill="#2490d0" stroke="none"> <path d="M1140 1205 c-14 -8 -41 -15 -60 -15 -31 -1 -44 -11 -110 -85 -64 -71 -86 -88 -149 -117 l-73 -33 5 -43 c3 -24 12 -51 21 -60 15 -15 19 -15 51 2 18 10 40 16 47 13 8 -2 26 -30 42 -61 29 -57 39 -65 53 -43 4 6 17 17 27 23 11 6 23 23 27 39 5 15 18 39 31 52 l23 25 -22 15 c-29 20 -32 80 -5 90 9 3 44 18 78 34 72 34 84 36 84 9 0 -12 -16 -29 -45 -46 -36 -20 -45 -31 -45 -53 0 -15 5 -32 12 -39 15 -15 67 -16 103 -2 20 7 34 6 56 -6 43 -22 31 -39 -27 -40 -59 0 -74 -8 -67 -33 3 -14 -2 -20 -24 -24 -19 -4 -34 -16 -42 -34 -28 -59 -27 -58 -71 -55 -23 2 -55 -2 -72 -9 -23 -9 -34 -9 -53 1 -13 7 -31 10 -39 7 -23 -9 -47 20 -40 49 8 32 -2 55 -21 48 -11 -5 -15 -21 -15 -59 0 -57 -10 -71 -47 -67 -15 2 -27 -6 -39 -27 -10 -17 -21 -31 -24 -31 -4 0 -25 -16 -47 -35 -23 -19 -49 -35 -58 -35 -9 0 -29 -6 -43 -14 -15 -8 -40 -17 -55 -21 -34 -7 -31 -29 4 -33 33 -5 49 -29 49 -72 0 -60 -15 -71 -100 -72 -102 -1 -124 -10 -116 -48 3 -17 1 -42 -4 -56 -6 -14 -7 -43 -4 -65 6 -33 10 -40 25 -36 10 3 30 -4 44 -14 22 -18 26 -19 54 -4 17 8 41 15 56 15 14 0 25 4 25 9 0 5 11 22 24 38 13 16 26 40 28 53 2 18 15 31 46 45 34 16 42 25 42 46 0 38 21 53 53 38 21 -10 33 -9 61 5 42 20 59 14 85 -30 11 -19 27 -34 34 -34 25 0 93 -57 107 -89 16 -40 25 -34 29 20 1 16 6 19 21 14 11 -3 20 -2 20 4 0 5 -10 13 -22 17 -41 12 -120 68 -133 94 -9 17 -10 31 -4 43 15 27 37 20 61 -18 14 -22 34 -38 51 -42 33 -7 77 -56 77 -87 0 -12 13 -35 30 -51 17 -16 30 -36 30 -46 0 -9 7 -22 15 -29 13 -11 19 -7 17 12 -1 3 5 12 13 18 9 7 15 29 15 51 0 41 6 45 74 48 53 2 58 7 41 40 -14 28 -13 32 26 91 31 49 44 61 62 58 14 -2 23 -11 25 -26 5 -31 39 -43 89 -29 34 9 42 16 47 40 3 16 3 40 0 54 -4 14 -1 64 6 112 l12 87 -41 82 c-30 60 -41 94 -41 127 0 35 -7 54 -27 81 -16 18 -34 34 -42 34 -16 0 -84 70 -77 78 3 2 19 -1 35 -7 16 -7 41 -11 56 -9 33 4 55 32 38 49 -14 14 -151 51 -163 44 -5 -3 -26 3 -47 14 -53 27 -141 35 -173 16z"/> <path d="M479 827 c-22 -31 -14 -76 16 -87 30 -12 43 -50 21 -62 -19 -11 -21 -34 -3 -41 8 -4 4 -12 -13 -26 -32 -25 -19 -38 23 -23 19 7 47 12 64 12 27 0 31 4 36 33 4 23 0 36 -13 48 -9 8 -20 24 -24 36 -4 11 -15 28 -26 38 -15 14 -17 22 -9 36 7 15 6 21 -6 25 -8 3 -15 12 -15 20 0 22 -33 16 -51 -9z"/> <path d="M400 730 c-6 -11 -17 -20 -25 -20 -9 0 -14 -9 -14 -22 1 -13 -2 -31 -6 -40 -8 -21 5 -23 38 -6 12 6 29 14 37 18 20 9 26 70 8 81 -20 13 -26 11 -38 -11z"/> <path d="M940 160 c0 -5 8 -10 18 -10 10 0 23 -5 30 -12 9 -9 12 -7 12 10 0 18 -6 22 -30 22 -16 0 -30 -4 -30 -10z"/> </g> </svg> 