 <svg  version="1.0" xmlns="http://www.w3.org/2000/svg"  width="245.000000pt" height="173.000000pt" viewBox="0 0 245.000000 173.000000"  preserveAspectRatio="xMidYMid meet">  <g transform="translate(0.000000,173.000000) scale(0.100000,-0.100000)" fill="#8e84b8" stroke="none"> <path d="M2088 1405 c-2 -2 -49 -7 -103 -10 -56 -4 -126 -15 -158 -26 -31 -10 -69 -19 -83 -19 -45 0 -21 -25 30 -31 50 -5 67 -19 59 -50 -4 -13 0 -19 11 -19 9 0 16 -4 16 -10 0 -5 -4 -10 -10 -10 -5 0 -10 -5 -10 -11 0 -6 -10 -19 -21 -28 -18 -14 -21 -24 -15 -53 4 -20 12 -41 20 -47 19 -16 76 -26 76 -13 0 6 15 26 33 46 23 24 44 36 74 41 23 4 47 13 54 21 6 8 18 14 27 14 28 0 91 23 86 31 -3 5 2 9 11 9 11 0 15 6 10 19 -4 14 1 20 24 24 22 5 32 14 37 32 7 30 48 64 78 66 11 1 1 6 -24 11 -46 11 -215 20 -222 13z"/> <path d="M1630 1390 c-19 -4 -27 -8 -17 -9 27 -2 20 -20 -10 -27 -16 -3 -37 -9 -48 -14 -15 -7 -10 -9 23 -9 24 -1 55 5 70 13 15 7 62 21 105 30 42 10 77 19 77 22 0 7 -162 2 -200 -6z"/> <path d="M1505 1370 c-4 -6 6 -10 24 -10 16 0 33 5 36 10 4 6 -6 10 -24 10 -16 0 -33 -4 -36 -10z"/> <path d="M1395 1350 c3 -5 10 -10 16 -10 5 0 9 5 9 10 0 6 -7 10 -16 10 -8 0 -12 -4 -9 -10z"/> <path d="M1190 1308 c0 -4 26 -8 57 -8 31 0 53 3 49 7 -10 11 -106 12 -106 1z"/> <path d="M1368 1313 c6 -2 18 -2 25 0 6 3 1 5 -13 5 -14 0 -19 -2 -12 -5z"/> <path d="M1455 1310 c-4 -6 7 -10 25 -10 18 0 29 4 25 10 -3 6 -15 10 -25 10 -10 0 -22 -4 -25 -10z"/> <path d="M1043 1274 c-43 -19 -42 -28 2 -20 25 5 40 3 50 -8 14 -13 13 -16 -2 -25 -13 -8 2 -9 57 -5 93 7 100 9 100 31 0 15 -10 18 -52 20 -28 1 -56 7 -62 13 -14 14 -54 11 -93 -6z"/> <path d="M1323 1279 c-24 -9 -31 -29 -10 -29 17 1 50 27 40 33 -4 2 -18 1 -30 -4z"/> <path d="M1388 1273 c6 -2 18 -2 25 0 6 3 1 5 -13 5 -14 0 -19 -2 -12 -5z"/> <path d="M1437 1269 c-26 -15 -12 -27 41 -34 58 -8 92 -21 92 -36 0 -18 -43 -48 -70 -50 -21 -1 -22 -2 -5 -6 11 -3 31 -14 44 -24 25 -20 57 -26 46 -9 -3 6 4 10 15 10 19 0 21 4 16 25 -5 18 -2 25 8 25 8 0 17 -4 21 -10 8 -12 35 -1 35 15 0 7 -7 16 -16 19 -9 3 -14 13 -11 20 8 20 -12 34 -61 42 -23 4 -45 11 -48 15 -7 12 -85 11 -107 -2z"/> <path d="M1341 1237 c-6 -8 -9 -16 -6 -19 3 -3 -2 -11 -11 -18 -12 -11 -17 -11 -23 -1 -6 10 -17 10 -46 2 -20 -5 -49 -8 -64 -5 -14 3 -45 1 -69 -4 -34 -8 -50 -7 -74 6 -23 11 -63 16 -142 16 -61 1 -117 5 -124 9 -19 13 -172 11 -248 -3 -95 -17 -93 -16 -87 -39 5 -19 1 -21 -38 -22 -30 -2 -35 -3 -16 -6 45 -7 31 -21 -43 -43 -69 -20 -90 -43 -55 -56 8 -4 12 -10 9 -15 -7 -12 7 -11 52 4 22 8 59 15 83 15 24 1 50 7 57 13 22 18 86 0 117 -34 25 -28 28 -36 22 -75 -4 -27 -2 -56 6 -73 10 -25 9 -32 -4 -47 -45 -47 -77 -91 -77 -105 0 -8 -7 -17 -15 -21 -25 -9 -19 -80 10 -114 18 -22 26 -44 29 -87 2 -31 9 -62 15 -68 6 -6 11 -19 11 -29 0 -10 4 -18 10 -18 10 0 3 54 -11 82 -12 23 -11 58 2 58 5 0 17 -17 26 -37 8 -21 29 -58 46 -82 17 -24 31 -56 33 -70 1 -14 2 -29 3 -33 1 -4 21 -20 47 -37 30 -21 57 -31 83 -31 27 0 44 -7 61 -25 13 -14 31 -25 39 -25 20 -1 61 -34 61 -50 0 -6 14 -24 32 -40 25 -23 35 -27 50 -19 14 7 24 7 34 -2 11 -9 14 -8 14 4 0 19 -19 26 -53 20 -43 -8 -59 12 -55 71 l3 51 -37 3 c-44 4 -45 9 -18 54 25 41 25 48 0 48 -11 0 -27 -11 -36 -25 -21 -32 -78 -35 -94 -6 -15 28 -12 83 5 125 18 42 89 82 125 71 11 -4 27 -1 35 5 9 7 23 9 37 4 13 -4 27 -7 32 -5 15 4 25 -21 21 -51 -2 -19 1 -28 11 -28 10 0 14 13 14 50 0 52 -1 50 73 111 20 17 37 36 37 43 0 20 68 86 89 86 11 0 26 8 33 18 14 18 73 62 84 62 3 0 4 -7 1 -15 -9 -22 6 -25 32 -6 17 13 21 23 15 32 -5 8 -9 19 -9 24 0 6 -10 11 -22 13 -13 2 -23 7 -23 11 0 19 29 31 74 31 57 0 125 28 126 51 0 9 -9 24 -20 34 -11 10 -20 31 -20 48 0 25 -3 28 -20 23 -65 -20 -61 -20 -58 10 3 24 -1 29 -29 35 -26 5 -36 2 -55 -18 -12 -13 -23 -34 -23 -46 0 -13 -13 -30 -35 -45 -19 -13 -41 -34 -48 -48 -13 -25 -36 -32 -48 -13 -3 6 -1 16 5 22 17 17 13 27 -8 27 -11 0 -26 7 -35 15 -8 8 -23 15 -34 15 -28 0 -39 47 -15 66 30 23 176 92 207 98 29 5 66 32 66 48 0 16 -40 8 -52 -12 -15 -23 -33 -27 -25 -6 3 8 -2 16 -14 19 -13 3 -17 11 -13 21 7 19 -9 21 -25 3z"/> <path d="M2177 1140 c10 -11 26 -20 36 -20 18 0 77 27 77 35 0 3 -29 5 -65 5 -64 0 -65 0 -48 -20z"/> <path d="M1373 1143 c-22 -8 -14 -23 12 -23 14 0 25 4 25 9 0 11 -21 19 -37 14z"/> <path d="M255 1020 c-3 -5 1 -10 9 -10 9 0 16 5 16 10 0 6 -4 10 -9 10 -6 0 -13 -4 -16 -10z"/> <path d="M1601 866 l-22 -23 38 -6 c44 -7 44 -7 37 20 -9 31 -29 35 -53 9z"/> <path d="M1067 374 c-14 -14 -7 -19 28 -20 19 0 43 -8 54 -18 11 -10 28 -16 38 -14 14 3 10 8 -18 26 -40 24 -90 37 -102 26z"/> <path d="M1235 309 c-10 -15 0 -21 27 -17 l23 3 -22 13 c-15 8 -24 9 -28 1z"/> </g> </svg> 