 <svg  version="1.0" xmlns="http://www.w3.org/2000/svg"  width="113.000000pt" height="163.000000pt" viewBox="0 0 113.000000 163.000000"  preserveAspectRatio="xMidYMid meet">  <g transform="translate(0.000000,163.000000) scale(0.100000,-0.100000)" fill="#db2728" stroke="none"> <path d="M265 1490 c-14 -22 -25 -50 -25 -62 0 -13 0 -34 1 -47 0 -14 -14 -38 -32 -57 -25 -26 -32 -41 -32 -74 0 -22 -4 -43 -8 -46 -16 -10 -9 -42 14 -71 13 -15 34 -49 46 -75 22 -46 40 -68 113 -131 34 -30 37 -37 42 -102 4 -38 8 -90 11 -115 2 -25 8 -103 14 -174 8 -112 12 -132 30 -145 11 -9 23 -32 26 -51 6 -31 33 -106 55 -150 4 -8 21 -18 39 -21 18 -4 42 -16 55 -28 38 -35 39 -23 2 25 -30 39 -33 49 -24 69 7 16 7 29 0 41 -8 14 -6 26 6 46 15 25 15 29 -1 46 -25 28 -5 72 33 72 39 0 62 29 54 68 -6 28 -4 32 15 32 16 0 26 10 37 38 9 20 26 48 39 62 17 18 25 39 27 75 3 52 18 67 79 79 36 8 69 85 69 161 0 58 9 85 40 120 36 41 35 63 -8 104 -32 31 -50 40 -93 46 -29 4 -65 15 -79 24 -14 9 -34 22 -45 27 -11 6 -28 33 -37 59 -20 56 -28 62 -86 71 -36 5 -50 14 -80 53 -36 46 -37 46 -95 46 -32 0 -61 5 -65 10 -4 6 -31 11 -60 12 -51 2 -53 1 -77 -37z"/> </g> </svg> 